REM DIRINDEX 1\2,1\4,1\3\5,1\3\6,1\3\7
REM DIRNAME cjc082,folder01,folder02,folder03,folder04,folder05,folder06
TITLE ""
FILE "CD1Track37.mp3" MP3
  TRACK 01 AUDIO
    TITLE "0:"
    INDEX 01 00:00:00
  TRACK 02 AUDIO
    TITLE "5:cjc082_0657"
    INDEX 01 00:00:31
  TRACK 03 AUDIO
    TITLE "0:"
    INDEX 01 00:01:52
  TRACK 04 AUDIO
    TITLE "6:cjc082_0658"
    INDEX 01 00:02:22
  TRACK 05 AUDIO
    TITLE "0:"
    INDEX 01 00:05:46
  TRACK 06 AUDIO
    TITLE "5:cjc082_0659"
    INDEX 01 00:06:16
  TRACK 07 AUDIO
    TITLE "0:"
    INDEX 01 00:07:27
  TRACK 08 AUDIO
    TITLE "6:cjc082_0660"
    INDEX 01 00:08:01
  TRACK 09 AUDIO
    TITLE "0:"
    INDEX 01 00:09:06
  TRACK 10 AUDIO
    TITLE "5:cjc082_0661"
    INDEX 01 00:09:53
  TRACK 11 AUDIO
    TITLE "0:"
    INDEX 01 00:11:05
  TRACK 12 AUDIO
    TITLE "6:cjc082_0662"
    INDEX 01 00:11:50
  TRACK 13 AUDIO
    TITLE "0:"
    INDEX 01 00:12:56
  TRACK 14 AUDIO
    TITLE "5:cjc082_0663"
    INDEX 01 00:13:30
  TRACK 15 AUDIO
    TITLE "0:"
    INDEX 01 00:14:45
  TRACK 16 AUDIO
    TITLE "6:cjc082_0664"
    INDEX 01 00:15:19
  TRACK 17 AUDIO
    TITLE "0:"
    INDEX 01 00:16:49
  TRACK 18 AUDIO
    TITLE "5:cjc082_0665"
    INDEX 01 00:17:23
  TRACK 19 AUDIO
    TITLE "0:"
    INDEX 01 00:18:35
  TRACK 20 AUDIO
    TITLE "6:cjc082_0666"
    INDEX 01 00:19:11
  TRACK 21 AUDIO
    TITLE "0:"
    INDEX 01 00:21:15
  TRACK 22 AUDIO
    TITLE "5:cjc082_0667"
    INDEX 01 00:21:60
  TRACK 23 AUDIO
    TITLE "0:"
    INDEX 01 00:23:18
  TRACK 24 AUDIO
    TITLE "6:cjc082_0668"
    INDEX 01 00:23:67
  TRACK 25 AUDIO
    TITLE "0:"
    INDEX 01 00:25:07
  TRACK 26 AUDIO
    TITLE "5:cjc082_0669"
    INDEX 01 00:25:56
  TRACK 27 AUDIO
    TITLE "0:"
    INDEX 01 00:27:04
  TRACK 28 AUDIO
    TITLE "6:cjc082_0670"
    INDEX 01 00:27:51
  TRACK 29 AUDIO
    TITLE "0:"
    INDEX 01 00:29:09
  TRACK 30 AUDIO
    TITLE "5:cjc082_0671"
    INDEX 01 00:29:52
  TRACK 31 AUDIO
    TITLE "0:"
    INDEX 01 00:30:73
  TRACK 32 AUDIO
    TITLE "6:cjc082_0672"
    INDEX 01 00:31:45
  TRACK 33 AUDIO
    TITLE "0:"
    INDEX 01 00:32:66
  TRACK 34 AUDIO
    TITLE "5:cjc082_0673"
    INDEX 01 00:33:38
  TRACK 35 AUDIO
    TITLE "0:"
    INDEX 01 00:34:53
  TRACK 36 AUDIO
    TITLE "6:cjc082_0674"
    INDEX 01 00:35:29
  TRACK 37 AUDIO
    TITLE "0:"
    INDEX 01 00:36:40
  TRACK 38 AUDIO
    TITLE "5:cjc082_0675"
    INDEX 01 00:37:12
  TRACK 39 AUDIO
    TITLE "0:"
    INDEX 01 00:38:18
  TRACK 40 AUDIO
    TITLE "6:cjc082_0676"
    INDEX 01 00:39:00
  TRACK 41 AUDIO
    TITLE "0:"
    INDEX 01 00:41:32
  TRACK 42 AUDIO
    TITLE "5:cjc082_0677"
    INDEX 01 00:42:04
  TRACK 43 AUDIO
    TITLE "0:"
    INDEX 01 00:43:50
  TRACK 44 AUDIO
    TITLE "6:cjc082_0678"
    INDEX 01 00:44:26
  TRACK 45 AUDIO
    TITLE "0:"
    INDEX 01 00:46:15
  TRACK 46 AUDIO
    TITLE "5:cjc082_0679"
    INDEX 01 00:46:62
  TRACK 47 AUDIO
    TITLE "0:"
    INDEX 01 00:48:08
  TRACK 48 AUDIO
    TITLE "6:cjc082_0680"
    INDEX 01 00:48:55
  TRACK 49 AUDIO
    TITLE "0:"
    INDEX 01 00:50:60
  TRACK 50 AUDIO
    TITLE "5:cjc082_0681"
    INDEX 01 00:51:32
  TRACK 51 AUDIO
    TITLE "0:"
    INDEX 01 00:52:57
  TRACK 52 AUDIO
    TITLE "6:cjc082_0682"
    INDEX 01 00:53:31
  TRACK 53 AUDIO
    TITLE "0:"
    INDEX 01 00:55:34
  TRACK 54 AUDIO
    TITLE "5:cjc082_0683"
    INDEX 01 00:56:08
  TRACK 55 AUDIO
    TITLE "0:"
    INDEX 01 00:57:31
  TRACK 56 AUDIO
    TITLE "6:cjc082_0684"
    INDEX 01 00:58:13
  TRACK 57 AUDIO
    TITLE "0:"
    INDEX 01 01:00:04
  TRACK 58 AUDIO
    TITLE "5:cjc082_0685"
    INDEX 01 01:00:53
  TRACK 59 AUDIO
    TITLE "0:"
    INDEX 01 01:01:58
  TRACK 60 AUDIO
    TITLE "6:cjc082_0686"
    INDEX 01 01:02:36
  TRACK 61 AUDIO
    TITLE "0:"
    INDEX 01 01:03:57
  TRACK 62 AUDIO
    TITLE "7:cjc082_0687"
    INDEX 01 01:05:26
  TRACK 63 AUDIO
    TITLE "0:"
    INDEX 01 01:16:05
